<svg class="logo" xmlns="http://www.w3.org/2000/svg" viewBox="-12 -12 184 100">
                        <path id="path-upper" d="M124 76H19.12A19.18 19.18 0 015.6 70.435 18.94 18.94 0 010 57a18.94 18.94 0 015.6-13.435A19.18 19.18 0 0119.12 38H140.88c5.07 0 9.933-2.002 13.519-5.565A18.938 18.938 0 00160 19c0-5.04-2.014-9.872-5.6-13.435A19.182 19.182 0 00140.881 0H36"></path>
                        <path id="path-middle" d="M124 76H19.12A19.18 19.18 0 015.6 70.435 18.94 18.94 0 010 57a18.94 18.94 0 015.6-13.435A19.18 19.18 0 0119.12 38H140.88c5.07 0 9.933-2.002 13.519-5.565A18.938 18.938 0 00160 19c0-5.04-2.014-9.872-5.6-13.435A19.182 19.182 0 00140.881 0H36"></path>
                        <path id="path-bottom" d="M124 76H19.12A19.18 19.18 0 015.6 70.435 18.94 18.94 0 010 57a18.94 18.94 0 015.6-13.435A19.18 19.18 0 0119.12 38H140.88c5.07 0 9.933-2.002 13.519-5.565A18.938 18.938 0 00160 19c0-5.04-2.014-9.872-5.6-13.435A19.182 19.182 0 00140.881 0H36"></path>
                    </svg>