<svg class="illustration" xmlns="http://www.w3.org/2000/svg" fill="none" viewBox="0 0 339 863">
            <path fill="#2E5FE8" stroke="#242C39" stroke-width=".916" d="M183.682 17.864c0 1.062-.553 2.154-1.728 3.268-1.175 1.115-2.934 2.211-5.241 3.27-4.61 2.115-11.311 4.031-19.627 5.645-16.625 3.225-39.612 5.224-65.016 5.224-25.404 0-48.391-1.999-65.016-5.224-8.316-1.614-15.017-3.53-19.628-5.645-2.306-1.059-4.065-2.155-5.24-3.27C1.01 20.018.458 18.926.458 17.864c0-1.061.552-2.153 1.728-3.268 1.175-1.114 2.934-2.21 5.24-3.269 4.611-2.115 11.312-4.031 19.628-5.645C43.679 2.456 66.666.458 92.07.458c25.404 0 48.391 1.998 65.016 5.224 8.316 1.614 15.017 3.53 19.627 5.645 2.307 1.058 4.066 2.155 5.241 3.27 1.175 1.114 1.728 2.206 1.728 3.267Z"></path>
            <path fill="#242C39" stroke="#242C39" stroke-width=".916" d="M111.432 18.58c0 .154-.074.353-.322.6s-.639.509-1.183.771c-1.086.524-2.687 1.008-4.703 1.42-4.023.82-9.602 1.332-15.78 1.332-6.176 0-11.755-.511-15.778-1.332-2.016-.412-3.617-.896-4.703-1.42-.544-.262-.935-.524-1.183-.772-.248-.246-.322-.445-.322-.598 0-.154.074-.352.322-.6.248-.247.639-.508 1.183-.77 1.086-.525 2.687-1.01 4.703-1.42 4.023-.822 9.602-1.333 15.779-1.333s11.756.511 15.779 1.332c2.016.412 3.617.896 4.703 1.42.544.263.935.524 1.183.772.248.247.322.445.322.599Z"></path>
            <path fill="#F9C6C6" stroke="#242C39" d="m110.188 705.821-1.667-38.965 31.218-1.335 1.667 38.964-31.218 1.336Z"></path>
            <path fill="#FEF2A4" stroke="#242C39" d="m148.868 705.417 2.196 28.727-56.05 3.689-1.062-18.727 11.081-15.078 39.109-2.697a4.434 4.434 0 0 1 4.726 4.086Z"></path>
            <path stroke="#242C39" d="m149.443 705.561-32.006 2.284M149.778 711.475l-36.342 2.371"></path>
            <path fill="#fff" stroke="#242C39" d="m61.867 739.202 33.07-1.857-.5-19.5-26.983 10.187a8.87 8.87 0 0 0-5.722 8.799l.135 2.371ZM101.901 706.609l6.652 2.712a2.462 2.462 0 0 1-1.858 4.559l-6.653-2.712a2.462 2.462 0 0 1 1.859-4.559ZM96.323 712.858l6.652 2.712a2.461 2.461 0 0 1-1.858 4.559l-6.653-2.712a2.462 2.462 0 0 1 1.859-4.559Z"></path>
            <path stroke="#242C39" d="m120.533 703.028-9.272 13.866a17.735 17.735 0 0 0-2.964 10.863l.502 8.856"></path>
            <path fill="#F5D90A" stroke="#242C39" d="m61.846 738.715 89.677-5.085.441 7.786a3.046 3.046 0 0 1-2.869 3.215l-83.593 4.741a3.048 3.048 0 0 1-3.214-2.87l-.442-7.787Z"></path>
            <path fill="#F9C6C6" stroke="#242C39" d="m278.071 808.562-12.438-36.964 29.616-9.965 12.437 36.964-29.615 9.965Z"></path>
            <path fill="#FEF2A4" stroke="#242C39" d="m312.203 797.462 9.505 27.198-53.219 17.97-5.839-17.824 6.833-17.419 37.103-12.658a4.434 4.434 0 0 1 5.617 2.733Z"></path>
            <path stroke="#242C39" d="m312.796 797.454-30.344 10.434M314.64 803.083l-34.512 11.631"></path>
            <path fill="#fff" stroke="#242C39" d="m236.808 852.473 31.481-10.293-5.494-18.717-23.459 16.78a8.867 8.867 0 0 0-3.268 9.973l.74 2.257ZM267.12 810.686l7.126.911a2.461 2.461 0 1 1-.624 4.883l-7.126-.911a2.461 2.461 0 1 1 .624-4.883ZM263.335 818.159l7.126.911a2.462 2.462 0 0 1-.624 4.883l-7.126-.911a2.461 2.461 0 1 1 .624-4.883Z"></path>
            <path stroke="#242C39" d="m284.206 802.437-5.397 15.782a17.737 17.737 0 0 0-.072 11.26l2.761 8.43"></path>
            <path fill="#F5D90A" stroke="#242C39" d="m236.662 852.008 85.358-27.963 2.428 7.412a3.048 3.048 0 0 1-1.948 3.844l-79.566 26.065a3.046 3.046 0 0 1-3.844-1.947l-2.428-7.411Z"></path>
            <path fill="#EEB1B1" d="M80.662 151.562c.8 6.561 6.767 11.232 13.329 10.432 6.561-.8 11.232-6.767 10.432-13.328-.8-6.562-6.767-11.232-13.328-10.432-6.562.799-11.232 6.767-10.433 13.328Z"></path>
            <path stroke="#242C39" stroke-width=".776" d="m102.575 151.16-6.74-9.728-7.917 4.231"></path>
            <path fill="#EEB1B1" stroke="#242C39" stroke-width=".776" d="m80.265 161.753 11.56-22.922a3.612 3.612 0 0 1 6.45 3.252l-11.56 22.922a3.612 3.612 0 0 1-6.45-3.252Z"></path>
            <path fill="#FFE2E2" stroke="#242C39" stroke-width=".776" d="m79.456 163.496 1.648-3.268a2.14 2.14 0 1 1 3.82 1.926l-1.648 3.269a2.139 2.139 0 0 1-3.82-1.927Z"></path>
            <path fill="#EEB1B1" stroke="#242C39" stroke-width=".776" d="m74.085 158.384 11.913-22.74a3.611 3.611 0 1 1 6.398 3.352l-11.913 22.74a3.612 3.612 0 1 1-6.398-3.352Z"></path>
            <path fill="#EEB1B1" stroke="#242C39" stroke-width=".776" d="m97.532 204.826-.008.001-.05-.408v-.007l-.86-6.077a4.482 4.482 0 0 1-.022-1.076l.004-.043-.005-.043-1.803-14.788-.028-.235-.222-.082a12.817 12.817 0 0 1-8.29-10.479c-.766-6.285 3.154-12.061 9.018-13.824l.087-.026.067-.062c2.63-2.459 6.128-5.583 8.221-7.426l.221-.194-.128-.265-3.636-7.559-.02-.042-.03-.036-.019-.023a4.717 4.717 0 0 1-.974-2.041l-.01-.047-.02-.043-.514-1.066.674-2.095.233.211.244-.397c.237-.385.516-.721.826-1.006l.724-.666-.983-.007c-3.068-.025-6.798-.33-9.768-.667l-.726-1.453c.61-.942 1.93-2.088 4.037-2.548 2.234-.487 5.385-.21 9.54 1.958 1.197.624 1.892 1.12 2.221 1.495.164.187.203.305.208.361.003.034-.002.076-.074.145l-.402.385.5.244c.727.356 1.38.912 1.874 1.675l8.524 13.156c.464.718.659 1.532.609 2.323l-.002.042.006.042c.01.067.02.248.025.561.005.301.006.702.002 1.188-.008.971-.032 2.277-.066 3.807-.07 3.059-.182 7.008-.295 10.959v.004c-.135 4.733-.27 9.47-.331 12.677v.035l.005.035 2.592 15.721.002.015.004.016 23.428 93.639.021.081.052.066 64.197 80.834c6.845 8.619 5.752 21.088-2.489 28.384-9.34 8.268-23.817 6.463-30.84-3.846l-59.359-87.124a13.02 13.02 0 0 1-1.192-2.162l-.003-.007a12.998 12.998 0 0 1-1.059-3.618l-13.885-98.195-.053-.377Z"></path>
            <path stroke="#242C39" stroke-width=".776" d="m99.237 153.871-3.592-5.591-4.412 3.033"></path>
            <path fill="#A5E4D4" stroke="#242C39" stroke-width=".916" d="M239.992 513.246v.217l.168.137c9.637 7.883 14.466 20.908 11.198 33.867-4.448 17.631-22.244 28.41-39.93 24.186l-62.821-15.006-.565-.135v123.53H99.428L88.571 520.4a29.655 29.655 0 0 1 1.713-12.222l.007-.02.006-.021c3.847-14.613 18.593-24.528 34.318-21.409l50.097 9.934.51.101.036-.518 2.544-36.055c1.195-16.936 15.738-29.792 32.693-28.9 16.535.87 29.497 14.532 29.497 31.09v50.866Z"></path>
            <path fill="#A5E4D4" stroke="#242C39" d="m216 664-13.5-176 66-10 4.5 186 31 108.5-44.5 14.5L216 664Z"></path>
            <path fill="#A5E4D4" d="M222.993 449.012h-33.309v59.305h33.309v-59.305Z"></path>
            <path fill="#fff" stroke="#242C39" stroke-width=".916" d="m169.256 319.084 27.958 29.592a31.564 31.564 0 0 1 5.53 35.302c-7.625 15.935-29.404 18.165-40.099 4.106l-28.116-36.958a4.416 4.416 0 0 1 .489-5.891L163.02 318.9a4.417 4.417 0 0 1 6.236.184Z"></path>
            <path fill="#fff" stroke="#242C39" stroke-width=".916" d="M216.251 352.247h17.125c20.305 0 37.415 15.155 39.868 35.311l5.021 41.266a50.69 50.69 0 0 1 .15 10.861l-4.568 48.724a4.415 4.415 0 0 1-4.397 4.004h-87.102a7.667 7.667 0 0 1-7.633-6.952l-3.06-32.716a182.798 182.798 0 0 1 1.656-46.841l3.316-20.048c3.206-19.388 19.972-33.609 39.624-33.609Z"></path>
            <path fill="#242C39" d="M189.684 300.99c0 15.928 12.912 28.84 28.84 28.84 15.928 0 28.84-12.912 28.84-28.84 0-15.929-12.912-28.841-28.84-28.841-15.928 0-28.84 12.912-28.84 28.841Z"></path>
            <path fill="#F9C6C6" stroke="#242C39" stroke-width=".916" d="m209.284 349.867-1.062-16.79c-.438-6.93 4.824-12.903 11.754-13.341 6.93-.438 12.903 4.824 13.341 11.754l1.062 16.79c.438 6.93-4.824 12.903-11.754 13.341-6.93.439-12.903-4.824-13.341-11.754Z"></path>
            <path fill="#F9C6C6" stroke="#242C39" stroke-width=".916" d="M225.145 335.235c-14.274 4.805-29.739-2.87-34.544-17.144-4.805-14.273 2.87-29.739 17.143-34.543 7.242-2.438 14.339-3.787 20.374-1.746 5.987 2.025 11.06 7.435 14.154 18.833 1.294 9.915.555 17.358-2.253 22.912-2.801 5.542-7.698 9.272-14.874 11.688Z"></path>
            <path fill="#F9C6C6" d="M247.19 304.699a7.717 7.717 0 0 1-4.852 9.776 7.718 7.718 0 1 1-4.925-14.629 7.718 7.718 0 0 1 9.777 4.853Z"></path>
            <path stroke="#242C39" stroke-linecap="round" stroke-width=".916" d="M239.769 314.483c1.928.208 6.139-.609 7.563-5.546 1.78-6.171-4.841-13.228-12.56-5.916"></path>
            <path stroke="#242C39" stroke-linecap="round" stroke-width=".916" d="M239.486 303.457c.984-.474 3.184-.729 4.117 2.043M239.49 307.291c-.344-.599-.571-1.951 1.277-2.573"></path>
            <path fill="#242C39" d="M216.899 289.616c11.699 2.6 15.842 9.749 17.467 13.405 2.843-2.844 6.905-3.385 8.124-3.25l.406-1.219-4.062-10.561c-2.573-1.76-8.936-6.174-13.811-9.749-6.093-4.468-9.343 2.031-19.498 4.468-8.124 1.95-12.321 10.02-13.404 13.811 3.385-3.385 13.079-9.505 24.778-6.905Z"></path>
            <path fill="#242C39" d="M226.242 279.461c0 8.973 7.275 16.248 16.248 16.248 8.974 0 16.248-7.275 16.248-16.248 0-8.974-7.274-16.248-16.248-16.248-8.973 0-16.248 7.274-16.248 16.248Z"></path>
            <path fill="#242C39" d="M254.676 287.585c0 8.973 7.457 16.248 16.655 16.248s16.654-7.275 16.654-16.248c0-8.974-7.456-16.248-16.654-16.248s-16.655 7.274-16.655 16.248Z"></path>
            <path fill="#242C39" d="M269.299 313.582c0 8.973 7.275 16.248 16.248 16.248 8.974 0 16.249-7.275 16.249-16.248 0-8.974-7.275-16.248-16.249-16.248-8.973 0-16.248 7.274-16.248 16.248Z"></path>
            <path fill="#242C39" d="M296.109 310.332c0 8.974 7.275 16.248 16.249 16.248 8.973 0 16.248-7.274 16.248-16.248 0-8.973-7.275-16.248-16.248-16.248-8.974 0-16.249 7.275-16.249 16.248Z"></path>
            <path stroke="#242C39" stroke-width=".916" d="m175 496.5 16.032 5.081"></path>
            <path fill="#A5E4D4" d="M201.974 504.781h25.651v40.309h-25.651v-40.309Z"></path>
            <path fill="#FFE2E2" stroke="#242C39" stroke-width=".776" d="m73.476 160.284 1.546-3.318a2.139 2.139 0 1 1 3.878 1.808l-1.546 3.317a2.14 2.14 0 1 1-3.878-1.807Z"></path>
            <path fill="#F5D90A" fill-rule="evenodd" stroke="#242C39" stroke-width=".916" d="M83.795 93.306v-75.9h7.329l15.574 18.78-10.536 11.91 10.536 8.245-10.536 7.787 10.536 13.742v15.032c10.225 4.297 17.406 14.406 17.406 26.193 0 15.685-12.715 28.4-28.4 28.4-15.684 0-28.4-12.715-28.4-28.4 0-11.431 6.755-21.285 16.49-25.789Zm26.567 25.789c0 8.096-6.562 14.658-14.657 14.658-8.096 0-14.658-6.562-14.658-14.658 0-8.095 6.562-14.657 14.657-14.657 8.096 0 14.658 6.562 14.658 14.657Z" clip-rule="evenodd"></path>
            <path fill="#EEB1B1" stroke="#242C39" stroke-width=".776" d="m85.97 144.052 13.245 19.756a4.847 4.847 0 1 1-8.275 5.03L79.5 147.985a3.79 3.79 0 0 1 6.47-3.933Z"></path>
            <path fill="#FFE2E2" stroke="#242C39" stroke-width=".776" d="m83.927 143.219.615 1.122a2.605 2.605 0 0 1-4.566 2.505l-.616-1.122a2.605 2.605 0 0 1 4.567-2.505Z"></path>
            <path fill="#EEB1B1" d="m88.88 167.814 15.092-5.789-.985 12.384-8.603 1.049-5.505-7.644Z"></path>
            <path fill="#F9C6C6" stroke="#242C39" stroke-width=".916" d="m330.239 472.752.021.039.028.034a12.887 12.887 0 0 1 2.784 6.225l.003.014.003.014c.338 1.555.38 3.139.148 4.674l-.005.034v.035l-.06 67.133v.05l.011.05c.13.58.221 1.176.27 1.786l3.397 42.501c.564 7.043-4.69 13.21-11.733 13.773-7.044.563-13.211-4.69-13.774-11.734l-3.398-42.5a12.893 12.893 0 0 1 .031-2.393l.005-.048-.005-.049-6.777-63.683-.01-.097-.049-.084-48.365-83.539c-5.44-9.396-1.401-21.433 8.605-25.646 8.56-3.604 18.457-.115 22.863 8.06l46.007 85.351Z"></path>
            <path fill="#F9C6C6" stroke="#242C39" stroke-width=".916" d="m318.327 596.958 1.232 26.657a3.023 3.023 0 0 1-2.891 3.163 3.048 3.048 0 0 1-3.174-2.902l-1.233-26.658a3.023 3.023 0 0 1 2.892-3.162 3.047 3.047 0 0 1 3.174 2.902Z"></path>
            <path fill="#F9C6C6" stroke="#242C39" stroke-width=".916" d="m316.08 592.991-5.503 14.309a3.024 3.024 0 0 1-3.919 1.734 3.048 3.048 0 0 1-1.741-3.933l5.504-14.309a3.024 3.024 0 0 1 3.918-1.734 3.046 3.046 0 0 1 1.741 3.933ZM324.334 598.255l1.233 26.657a3.023 3.023 0 0 1-2.892 3.162 3.047 3.047 0 0 1-3.174-2.902l-1.233-26.657a3.023 3.023 0 0 1 2.892-3.162 3.047 3.047 0 0 1 3.174 2.902ZM330.491 594.973l1.233 26.657a3.024 3.024 0 0 1-2.892 3.163 3.047 3.047 0 0 1-3.174-2.902l-1.233-26.657a3.025 3.025 0 0 1 2.892-3.163 3.048 3.048 0 0 1 3.174 2.902ZM336.508 590.404l1.232 26.657a3.024 3.024 0 0 1-2.891 3.163 3.048 3.048 0 0 1-3.175-2.902l-1.232-26.657a3.023 3.023 0 0 1 2.891-3.163 3.048 3.048 0 0 1 3.175 2.902Z"></path>
            <path fill="#F9C6C6" d="m336.127 591.049-.352-3.22-.856-1.861-21.105.683-2.721 1.928.212 1.931-.354 12.883 1.981-1.005 3.723-1.711 15.666.238.864-4.005 2.942-5.861Z"></path>
            <path fill="#fff" stroke="#242C39" stroke-width=".812" d="M270.668 447.489 237.1 387.78c-4.654-8.278-1.966-18.752 6.099-23.766 12.85-7.989 29.761-3.773 37.357 9.314l28.932 49.848a4.467 4.467 0 0 1-1.456 6.006l-31.06 19.881a4.47 4.47 0 0 1-6.304-1.574Z"></path>
            <path stroke="#242C39" stroke-width=".916" d="M237.9 503.407c.917 6.565 7.787 20.246 27.942 22.445"></path>
        </svg>