<svg class="illustration" xmlns="http://www.w3.org/2000/svg" fill="none" viewBox="0 0 799 566">
        <path fill="#fff" stroke="#242C39" d="m540.749 429.622 55.485 22.849-14.808 35.958-55.485-22.849z"></path>
        <path fill="#FEF2A4" stroke="#242C39" d="m601.116 446.308 39.597 16.892-29.994 70.307-20.239-8.635-14.347-31.303 19.165-44.923a4.434 4.434 0 0 1 5.818-2.338Z"></path>
        <path stroke="#242C39" d="m603.43 447.294-17.312 40.58M609.821 450.021l-19.271 45.173M616.213 452.748l-21.359 50.066"></path>
        <path fill="#fff" stroke="#242C39" d="m599.586 559.605 11.134-26.098-20.24-8.635-.388 24.685a8.868 8.868 0 0 0 5.387 8.296l4.107 1.752Z"></path>
        <rect width="14.377" height="5.949" x="-.044" y=".706" fill="#fff" stroke="#242C39" rx="2.974" transform="scale(-1 1) rotate(41.473 -938.583 -525.21)"></rect>
        <rect width="14.377" height="5.949" x="-.044" y=".706" fill="#fff" stroke="#242C39" rx="2.974" transform="scale(-1 1) rotate(41.473 -952.03 -525.9)"></rect>
        <rect width="14.377" height="5.949" x="-.044" y=".706" fill="#fff" stroke="#242C39" rx="2.974" transform="scale(-1 1) rotate(41.473 -965.904 -526.182)"></rect>
        <path stroke="#242C39" d="m582.042 479.72 15.124 27.526a17.742 17.742 0 0 0 8.585 7.772l10.344 4.413"></path>
        <path fill="#F5D90A" stroke="#242C39" d="m640.367 462.336-41.418 97.083 9.061 3.866a3.047 3.047 0 0 0 3.998-1.607l39.026-91.478a3.046 3.046 0 0 0-1.607-3.998l-9.06-3.866Z"></path>
        <path stroke="#242C39" d="m556.378 477.656 14.078-35.195M576.908 444.807l-14.078 35.196"></path>
        <path fill="#FFCCA7" stroke="#242C39" stroke-width="1.204" d="M529.785 172.625c6.217 1.696 13.423 8.478 18.368 12.717l10.598-35.324-22.608-8.478c-4.71 9.655-12.575 29.39-6.358 31.085Z"></path>
        <rect width="8.77" height="46.475" x="-.383" y="-.679" fill="#FFCCA7" stroke="#242C39" stroke-width="1.103" rx="4.385" transform="matrix(.27011 -.96283 -.9636 -.26738 597.079 196.191)"></rect>
        <rect width="8.77" height="30.432" x="-.078" y="-.775" fill="#FFCCA7" stroke="#242C39" stroke-width="1.103" rx="4.385" transform="matrix(.63416 -.7732 -.775 -.63196 567.233 201.022)"></rect>
        <rect width="8.77" height="46.475" x="-.383" y="-.679" fill="#FFCCA7" stroke="#242C39" stroke-width="1.103" rx="4.385" transform="matrix(.27011 -.96283 -.9636 -.26738 601.465 188.697)"></rect>
        <rect width="8.77" height="46.475" x="-.383" y="-.679" fill="#FFCCA7" stroke="#242C39" stroke-width="1.103" rx="4.385" transform="matrix(.27011 -.96283 -.9636 -.26738 599.769 178.986)"></rect>
        <rect width="8.77" height="46.475" x="-.383" y="-.679" fill="#FFCCA7" stroke="#242C39" stroke-width="1.103" rx="4.385" transform="matrix(.27011 -.96283 -.9636 -.26738 596.284 168.897)"></rect>
        <path fill="#FFCCA7" d="m559.319 150.635-6.22-2.03-1.133 1.416-8.375 28.636-1.09.326 5.652 5.652 16.656 5.238-.478-3.103-.658-5.751 7.217-20.929-4.996-2.924-6.575-6.531Z"></path>
        <path fill="#fff" stroke="#242C39" d="m669.127 264.008 59.362-8.76 5.678 38.47-59.362 8.761z"></path>
        <path fill="#FEF2A4" stroke="#242C39" d="m729.531 247.453 42.664-5.748 10.206 75.753-21.808 2.938-28.343-19.553-6.521-48.403a4.434 4.434 0 0 1 3.802-4.987Z"></path>
        <path stroke="#242C39" d="m732.023 247.117 5.891 43.723M738.91 246.189l6.557 48.673M745.796 245.262l7.268 53.945"></path>
        <path fill="#fff" stroke="#242C39" d="m786.189 345.578-3.788-28.12-21.808 2.938 12.298 21.407a8.869 8.869 0 0 0 8.874 4.372l4.424-.597Z"></path>
        <rect width="14.377" height="5.949" x=".324" y=".629" fill="#fff" stroke="#242C39" rx="2.974" transform="scale(-1 1) rotate(72.25 -569.546 -357.714)"></rect>
        <rect width="14.377" height="5.949" x=".324" y=".629" fill="#fff" stroke="#242C39" rx="2.974" transform="scale(-1 1) rotate(72.25 -577.222 -360.259)"></rect>
        <rect width="14.377" height="5.949" x=".324" y=".629" fill="#fff" stroke="#242C39" rx="2.974" transform="scale(-1 1) rotate(72.25 -585.212 -362.632)"></rect>
        <path stroke="#242C39" d="m730.239 285.921 27.079 15.909a17.734 17.734 0 0 0 11.353 2.285l11.146-1.501"></path>
        <path fill="#F5D90A" stroke="#242C39" d="m771.455 241.141 14.093 104.603 9.762-1.315a3.047 3.047 0 0 0 2.613-3.427l-13.279-98.564a3.049 3.049 0 0 0-3.427-2.613l-9.762 1.316Z"></path>
        <path stroke="#242C39" d="m707.134 297.28-5.914-37.442M707.964 258.552l5.914 37.442"></path>
        <mask id="a" fill="#fff">
            <path fill-rule="evenodd" d="M92.737 246.702 72.87 254.47c-.697.294-1.42.577-2.173.849l-.073.029v-.002c-7.553 2.718-17.908 4.272-31.614 3.511-.698-.039-3.435 1.146-6.979 2.682-7.558 3.274-18.79 8.14-21.764 6.117l-8.26-6.758c-2.209-1.808-1.868-5.282.651-6.625l.759-.404c.117-.113.252-.214.404-.302l28.218-16.191a4.69 4.69 0 0 1 1.539-.555c2.558-.69 10.347-2.455 18.136-4.221 5.42-1.228 10.84-2.457 14.5-3.323l17.706-7.797 42.242-22.833 102.896-93.261c9.731-8.82 24.664-8.478 33.981.778 10.585 10.515 9.497 27.943-2.314 37.06l-108.993 84.131a13.362 13.362 0 0 1-2.887 2.189 13.337 13.337 0 0 1-6.228 2.208l-49.819 14.932c-.02.006-.04.013-.061.018Z" clip-rule="evenodd"></path>
        </mask>
        <path fill="#FFCCA7" fill-rule="evenodd" d="M92.737 246.702 72.87 254.47c-.697.294-1.42.577-2.173.849l-.073.029v-.002c-7.553 2.718-17.908 4.272-31.614 3.511-.698-.039-3.435 1.146-6.979 2.682-7.558 3.274-18.79 8.14-21.764 6.117l-8.26-6.758c-2.209-1.808-1.868-5.282.651-6.625l.759-.404c.117-.113.252-.214.404-.302l28.218-16.191a4.69 4.69 0 0 1 1.539-.555c2.558-.69 10.347-2.455 18.136-4.221 5.42-1.228 10.84-2.457 14.5-3.323l17.706-7.797 42.242-22.833 102.896-93.261c9.731-8.82 24.664-8.478 33.981.778 10.585 10.515 9.497 27.943-2.314 37.06l-108.993 84.131a13.362 13.362 0 0 1-2.887 2.189 13.337 13.337 0 0 1-6.228 2.208l-49.819 14.932c-.02.006-.04.013-.061.018Z" clip-rule="evenodd"></path>
        <path fill="#242C39" d="m72.87 254.47-.283-.723-.01.004-.009.004.302.715Zm19.867-7.768-.213-.746-.036.01-.034.014.283.722Zm-22.04 8.617-.264-.729-.009.003-.01.004.283.722Zm-.073.029-.723.282.283.723.723-.282-.283-.723Zm0-.002.722-.282-.275-.704-.71.256.262.73Zm-31.614 3.511-.043.775.043-.775Zm-6.979 2.682.309.712-.309-.712Zm-21.764 6.117-.491.601.026.021.029.02.436-.642Zm-8.26-6.758.492-.6-.491.6Zm.651-6.625.366.685-.366-.685Zm.759-.404.365.684.095-.05.077-.074-.537-.56Zm.404-.302-.386-.673.386.673Zm28.218-16.191.386.673-.386-.673Zm1.539-.555.132.765.035-.006.035-.01-.202-.749Zm18.136-4.221-.172-.757.172.757Zm14.5-3.323.178.755.069-.017.065-.028-.313-.71Zm17.706-7.797.313.71.028-.013.028-.015-.369-.682Zm42.242-22.833.369.683.083-.045.069-.063-.521-.575Zm102.896-93.261.521.575-.521-.575Zm33.981.778-.547.55.547-.55Zm-2.314 37.06-.474-.614.474.614Zm-108.993 84.131-.475-.615-.039.031-.035.035.549.549Zm-2.887 2.189-.381-.676-.026.015-.025.017.432.644Zm-6.228 2.208-.071-.773-.077.007-.075.023.223.743Zm-49.819 14.932-.222-.743.222.743Zm-19.645 8.508 19.866-7.767-.565-1.445-19.867 7.767.566 1.445Zm-2.192.857a46.34 46.34 0 0 0 2.21-.864l-.603-1.43c-.684.288-1.395.567-2.135.835l.528 1.459Zm-.054.022.073-.029-.565-1.445-.073.028.565 1.446Zm-1.006-.443v.002l1.446-.564v-.002l-1.446.564Zm-30.934 4.004c13.782.765 24.246-.795 31.92-3.556l-.526-1.46c-7.432 2.674-17.678 4.223-31.308 3.466l-.086 1.55Zm-6.627 2.619c1.776-.77 3.334-1.444 4.535-1.923a23.65 23.65 0 0 1 1.482-.545c.192-.06.345-.102.46-.126.127-.027.166-.025.15-.025l.086-1.55c-.19-.011-.39.021-.56.057a6.753 6.753 0 0 0-.603.165c-.437.138-.976.338-1.59.583-1.227.488-2.81 1.174-4.577 1.94l.617 1.424Zm-22.51 6.047c.522.354 1.168.522 1.847.583.685.061 1.46.018 2.29-.099 1.658-.232 3.628-.77 5.708-1.462 4.163-1.386 8.893-3.435 12.665-5.069l-.617-1.424c-3.787 1.64-8.452 3.66-12.538 5.021-2.045.68-3.913 1.184-5.433 1.398-.76.106-1.41.136-1.937.089-.533-.047-.889-.169-1.111-.321l-.873 1.284Zm-8.314-6.799 8.26 6.758.983-1.201-8.26-6.758-.983 1.201Zm.777-7.911c-3.007 1.604-3.415 5.752-.777 7.911l.983-1.201c-1.78-1.457-1.506-4.257.525-5.34l-.73-1.37Zm.759-.404-.759.404.73 1.37.759-.405-.73-1.369Zm.383-.29a2.889 2.889 0 0 0-.555.414l1.074 1.121c.07-.068.155-.132.253-.189l-.772-1.346Zm28.218-16.191L3.435 252.894l.772 1.346 28.218-16.191-.772-1.346Zm1.793-.647a5.483 5.483 0 0 0-1.793.647l.773 1.346a3.92 3.92 0 0 1 1.284-.463l-.264-1.53Zm18.096-4.213c-7.776 1.763-15.588 3.533-18.166 4.229l.404 1.498c2.538-.684 10.303-2.445 18.105-4.213l-.343-1.514Zm14.492-3.322c-3.654.866-9.07 2.093-14.492 3.322l.343 1.514c5.419-1.228 10.843-2.458 14.507-3.325l-.358-1.511Zm17.573-7.751L65.9 228.566l.626 1.421 17.707-7.797-.626-1.42Zm42.186-22.805-42.242 22.832.738 1.365 42.242-22.832-.738-1.365Zm102.744-93.154-102.896 93.262 1.042 1.149 102.896-93.261-1.042-1.15Zm35.049.802c-9.61-9.547-25.012-9.9-35.049-.802l1.042 1.15c9.426-8.543 23.889-8.212 32.913.753l1.094-1.101Zm-2.387 38.225c12.182-9.403 13.305-27.379 2.387-38.225l-1.094 1.101c10.253 10.185 9.198 27.065-2.241 35.896l.948 1.228Zm-108.993 84.131 108.993-84.131-.948-1.228-108.994 84.13.949 1.229Zm-2.981 2.252a14.103 14.103 0 0 0 3.055-2.318l-1.097-1.097a12.524 12.524 0 0 1-2.719 2.062l.761 1.353Zm-6.538 2.304a14.13 14.13 0 0 0 6.59-2.336l-.864-1.289a12.575 12.575 0 0 1-5.867 2.079l.141 1.546Zm-49.666 14.903 49.819-14.933-.446-1.486-49.819 14.932.446 1.487Zm-.071.02.071-.02-.445-1.487-.052.015.426 1.492Z" mask="url(#a)"></path>
        <mask id="b" fill="#fff">
            <path fill-rule="evenodd" d="m380.72 131.39-61.943 76.617L484.151 330.51a34.11 34.11 0 0 0 12.643 5.851 31.91 31.91 0 0 0 12.98.9l206.299-28.084a6 6 0 0 0 5.128-6.809l-7.889-54.196a6 6 0 0 0-6.826-5.07l-185.707 27.817L380.72 131.39Z" clip-rule="evenodd"></path>
        </mask>
        <path fill="#D0E8FF" fill-rule="evenodd" d="m380.72 131.39-61.943 76.617L484.151 330.51a34.11 34.11 0 0 0 12.643 5.851 31.91 31.91 0 0 0 12.98.9l206.299-28.084a6 6 0 0 0 5.128-6.809l-7.889-54.196a6 6 0 0 0-6.826-5.07l-185.707 27.817L380.72 131.39Z" clip-rule="evenodd"></path>
        <path fill="#242C39" d="m318.777 208.007-.778-.629-.656.812.839.621.595-.804Zm61.943-76.617.705-.708-.786-.783-.697.862.778.629Zm103.431 199.12.596-.804-.596.804Zm12.643 5.851.271-.963-.023-.006-.023-.005-.225.974Zm12.98.9.135.991-.135-.991Zm206.299-28.084.135.991-.135-.991Zm5.128-6.809-.989.144.989-.144Zm-7.889-54.196-.989.144.989-.144Zm-6.826-5.07-.148-.989.148.989Zm-185.707 27.817-.706.709.356.355.498-.075-.148-.989Zm-201.224-62.283 61.942-76.617-1.555-1.258-61.943 76.617 1.556 1.258Zm165.192 121.07L319.372 207.204l-1.19 1.607 165.374 122.502 1.191-1.607Zm12.272 5.681a33.086 33.086 0 0 1-12.272-5.681l-1.191 1.607a35.087 35.087 0 0 0 13.012 6.022l.451-1.948Zm12.62.883a30.888 30.888 0 0 1-12.574-.872l-.543 1.925a32.903 32.903 0 0 0 13.387.929l-.27-1.982Zm206.299-28.084L509.639 336.27l.27 1.982 206.299-28.084-.27-1.982Zm4.274-5.674a5 5 0 0 1-4.274 5.674l.27 1.982a7 7 0 0 0 5.983-7.945l-1.979.289Zm-7.889-54.196 7.889 54.196 1.979-.289-7.889-54.195-1.979.288Zm-5.689-4.225a5 5 0 0 1 5.689 4.225l1.979-.288a7.001 7.001 0 0 0-7.964-5.915l.296 1.978Zm-185.707 27.817 185.707-27.817-.296-1.978-185.707 27.817.296 1.978ZM380.014 132.099l140.059 139.529 1.412-1.417-140.06-139.529-1.411 1.417Z" mask="url(#b)"></path>
        <mask id="c" fill="#fff">
            <path fill-rule="evenodd" d="m400.48 182.603-92.228 34.658 80.481 189.415.184.425a31.96 31.96 0 0 0 17.202 18.523l147.713 65.294a6.001 6.001 0 0 0 8.015-3.304l19.898-50.926a6 6 0 0 0-3.254-7.711l-127.673-53.926-50.338-192.448Z" clip-rule="evenodd"></path>
        </mask>
        <path fill="#D0E8FF" fill-rule="evenodd" d="m400.48 182.603-92.228 34.658 80.481 189.415.184.425a31.96 31.96 0 0 0 17.202 18.523l147.713 65.294a6.001 6.001 0 0 0 8.015-3.304l19.898-50.926a6 6 0 0 0-3.254-7.711l-127.673-53.926-50.338-192.448Z" clip-rule="evenodd"></path>
        <path fill="#242C39" d="m308.252 217.261-.352-.936-.976.367.408.96.92-.391Zm92.228-34.658.967-.253-.281-1.073-1.038.39.352.936Zm-11.747 224.073-.92.392.92-.392Zm.184.425.942-.336-.012-.034-.015-.033-.915.403Zm17.202 18.523.405-.915-.405.915Zm147.713 65.294-.404.914.404-.914Zm8.015-3.304.931.363-.931-.363Zm19.898-50.926-.932-.364.932.364Zm-3.254-7.711.389-.921-.389.921Zm-127.673-53.926-.967.253.124.477.454.191.389-.921ZM308.604 218.197l92.227-34.658-.703-1.872-92.228 34.658.704 1.872Zm81.05 188.088L309.172 216.87l-1.84.782 80.481 189.416 1.841-.783Zm.178.413c-.06-.137-.12-.274-.178-.413l-1.841.783c.062.146.125.291.189.436l1.83-.806Zm16.692 18.011a30.956 30.956 0 0 1-16.665-17.944l-1.884.672a32.958 32.958 0 0 0 17.74 19.101l.809-1.829Zm147.713 65.294-147.713-65.294-.809 1.829 147.713 65.294.809-1.829Zm6.678-2.753a5 5 0 0 1-6.678 2.753l-.809 1.829a7 7 0 0 0 9.35-3.855l-1.863-.727Zm19.898-50.926-19.898 50.926 1.863.727 19.898-50.926-1.863-.727Zm-2.711-6.426a5 5 0 0 1 2.711 6.426l1.863.727a7 7 0 0 0-3.796-8.995l-.778 1.842Zm-127.673-53.926 127.673 53.926.778-1.842-127.673-53.926-.778 1.842Zm-50.917-193.116 50.339 192.448 1.934-.506-50.338-192.448-1.935.506Z" mask="url(#c)"></path>
        <path fill="#D0E8FF" d="m364.564 190.978 55.381-15.414 28.501 107.345-54.817 12.495-29.065-104.426Z"></path>
        <path fill="#D7CFF9" stroke="#242C39" stroke-width=".916" d="m63.746 227.744 13.057 27.466a4.417 4.417 0 0 0 5.536 2.24l49.745-18.607a199.531 199.531 0 0 0 42.978-22.354l71-48.71c21.718-14.901 20.093-47.469-3.002-60.133a19.083 19.083 0 0 0-21.905 2.517l-64.592 57.853a200.49 200.49 0 0 1-42.437 29.136l-48.403 24.764a4.416 4.416 0 0 0-1.977 5.828Z"></path>
        <path stroke="#242C39" d="m419.704 187.296 59.831 59.832c11.537 10.754 35.665 32.731 39.888 34.608 4.224 1.877 124.943-16.815 184.775-26.396M703.025 245.368l9.386 62.765M551.099 488.215l21.704-49.86M409.732 274.698c8.212 31.871 26.279 97.607 32.849 105.585 6.57 7.977 113.015 51.815 136.088 59.245"></path>
        <mask id="d" fill="#fff">
            <path fill-rule="evenodd" d="M232.397 105.325c-13.698 14.403-14.961 36.602-2.986 52.466l19.328 25.604a183.222 183.222 0 0 0 35.726 35.757l21.906 16.564a8.124 8.124 0 0 0 8.856.616l116.772-65.112c2.901-1.618 3.37-5.599.925-7.846l-29.032-26.686 20.955 4.49 102.843 32.983a4.875 4.875 0 0 0 6.065-2.961l9.227-25.128a4.874 4.874 0 0 0-2.851-6.24l-100.998-38.189a13.302 13.302 0 0 0-.776-.29l-52.133-17.677a279.567 279.567 0 0 0-79.476-14.617l-6.639-.245c-14.841-5.194-31.678-1.38-42.839 10.356l-24.873 26.155Z" clip-rule="evenodd"></path>
        </mask>
        <path fill="#D7CFF9" fill-rule="evenodd" d="M232.397 105.325c-13.698 14.403-14.961 36.602-2.986 52.466l19.328 25.604a183.222 183.222 0 0 0 35.726 35.757l21.906 16.564a8.124 8.124 0 0 0 8.856.616l116.772-65.112c2.901-1.618 3.37-5.599.925-7.846l-29.032-26.686 20.955 4.49 102.843 32.983a4.875 4.875 0 0 0 6.065-2.961l9.227-25.128a4.874 4.874 0 0 0-2.851-6.24l-100.998-38.189a13.302 13.302 0 0 0-.776-.29l-52.133-17.677a279.567 279.567 0 0 0-79.476-14.617l-6.639-.245c-14.841-5.194-31.678-1.38-42.839 10.356l-24.873 26.155Z" clip-rule="evenodd"></path>
        <path fill="#242C39" d="m229.411 157.791-.731.552.731-.552Zm2.986-52.466.663.632-.663-.632Zm16.342 78.07-.732.552.732-.552Zm35.726 35.757-.552.731.552-.731Zm21.906 16.564.552-.73-.552.73Zm8.856.616-.446-.8.446.8Zm116.772-65.112.446.8-.446-.8Zm.925-7.846-.62.674.62-.674Zm-29.032-26.686.192-.896-3.287-.704 2.475 2.274.62-.674Zm20.955 4.49.28-.872-.044-.014-.044-.009-.192.895Zm102.843 32.983.28-.872-.28.872Zm6.065-2.961-.86-.316.86.316Zm9.227-25.128.86.316-.86-.316Zm-2.851-6.24-.324.857.324-.857Zm-100.998-38.189-.348.848.012.004.012.005.324-.857Zm-.776-.29.294-.868-.294.868Zm-52.133-17.677.294-.868-.294.867Zm-79.476-14.617.034-.916-.034.916Zm-6.639-.245-.303.865.131.045.138.005.034-.915ZM257.27 79.17l-.664-.631.664.631Zm-27.128 78.069c-11.705-15.506-10.47-37.204 2.918-51.282l-1.327-1.263c-14.006 14.728-15.298 37.427-3.053 53.649l1.462-1.104Zm19.328 25.604-19.328-25.604-1.462 1.104 19.327 25.604 1.463-1.104Zm35.548 35.578a182.307 182.307 0 0 1-35.548-35.578l-1.463 1.104a184.174 184.174 0 0 0 35.906 35.936l1.105-1.462Zm21.905 16.565-21.905-16.565-1.105 1.462 21.905 16.564 1.105-1.461Zm7.858.546a7.211 7.211 0 0 1-7.858-.546l-1.105 1.461a9.039 9.039 0 0 0 9.855.685l-.892-1.6Zm116.772-65.113-116.772 65.113.892 1.6 116.772-65.112-.892-1.601Zm.751-6.371c1.985 1.825 1.604 5.058-.751 6.371l.892 1.601c3.446-1.922 4.003-6.651 1.099-9.321l-1.24 1.349Zm-29.032-26.686 29.032 26.686 1.24-1.349-29.032-26.686-1.24 1.349Zm.428.221 20.955 4.491.384-1.791-20.955-4.491-.384 1.791Zm20.867 4.468 102.844 32.982.559-1.744-102.843-32.983-.56 1.745Zm102.844 32.982a5.79 5.79 0 0 0 7.204-3.517l-1.72-.632a3.96 3.96 0 0 1-4.925 2.405l-.559 1.744Zm7.204-3.517 9.227-25.128-1.72-.632-9.227 25.128 1.72.632Zm9.227-25.128a5.791 5.791 0 0 0-3.387-7.413l-.648 1.714a3.958 3.958 0 0 1 2.315 5.067l1.72.632Zm-3.387-7.413-100.998-38.189-.648 1.714 100.998 38.189.648-1.714Zm-100.974-38.18a14.912 14.912 0 0 0-.83-.31l-.588 1.735c.245.083.486.174.722.271l.696-1.696Zm-.83-.31-52.133-17.677-.588 1.735 52.133 17.677.588-1.735Zm-52.133-17.677a280.478 280.478 0 0 0-79.736-14.665l-.068 1.831a278.652 278.652 0 0 1 79.216 14.57l.588-1.736Zm-79.736-14.665-6.64-.245-.067 1.831 6.639.245.068-1.83Zm-48.848 11.658c10.909-11.47 27.366-15.199 41.872-10.122l.605-1.73c-15.175-5.31-32.392-1.41-43.805 10.59l1.328 1.262Zm-24.874 26.156 24.874-26.156-1.328-1.262-24.873 26.155 1.327 1.263Z" mask="url(#d)"></path>
        <path fill="#242C39" d="M171.843 82.517c13.541 12.878 34.957 12.34 47.835-1.2 12.877-13.542 12.339-34.958-1.201-47.835-20.503-21.577-59.218-4.566-66.257 8.925-12.318 17.598 3.52 43.407 19.623 40.11Z"></path>
        <rect width="29.658" height="49.395" x=".057" y=".645" fill="#FFCCA7" stroke="#242C39" stroke-width=".916" rx="12.573" transform="scale(-1 1) rotate(50.058 -174.933 -206.927)"></rect>
        <path fill="#FFCCA7" stroke="#242C39" stroke-width=".916" d="M187.091 95.636c16.059 7.473 35.135.513 42.608-15.545 3.754-8.067 4.547-15.268 2.091-22.155-2.459-6.9-8.205-13.559-17.688-20.48-12.208-6.594-20.939-6.666-27.533-3.196-6.639 3.494-11.239 10.639-15.023 18.769-7.473 16.058-.513 35.134 15.545 42.607Z"></path>
        <circle cx="217.669" cy="44.837" r="9.054" fill="#FFCCA7" transform="rotate(-65.044 217.669 44.837)"></circle>
        <path stroke="#242C39" stroke-linecap="round" stroke-width=".916" d="M223.809 50.847c1.735-1.47 4.444-5.71 1.399-10.912-3.808-6.503-15.16-6.58-15.184 5.893"></path>
        <path stroke="#242C39" stroke-linecap="round" stroke-width=".916" d="M214.206 42.174c.392-1.22 1.954-3.296 5.065-1.848M217.468 45.27c-.787-.192-2.12-1.092-1.155-3.166"></path>
        <path fill="#242C39" d="M184.178 50.186c11.668-7.844 21.095-5.586 25.517-4.012-.119-4.716 2.705-8.607 3.805-9.534l-.707-1.33-12.263-5.086c-3.576.764-12.474 2.606-19.453 3.86-8.725 1.567-5.827 9.584-11.965 20.188-4.911 8.483-1.444 18.575.904 22.561-.141-5.614 2.494-18.804 14.162-26.647Z"></path>
        <path stroke="#242C39" d="m399.173 265.899 35.195 26.983M403.865 136.261c-31.089-6.648-92.798-24.989-100.306-28.743M319.983 242.435l110.279-61.005"></path>
        <rect width="179.668" height="91.681" x="9.594" y="253.491" fill="#D0E8FF" stroke="#000" rx="4.122"></rect>
        <path stroke="#000" d="M29.038 267.069h31.675M29.038 278.801h41.06"></path>
        <rect width="179.668" height="91.681" x="133.95" y="389.579" fill="#FEF2A4" stroke="#000" rx="4.122"></rect>
        <path stroke="#000" d="M153.394 403.157h31.676M153.394 414.889h41.061"></path>
    </svg>